<?xml version="1.0" encoding="utf-8"?>
<svg width="24" height="22.96" viewBox="0 0 24 22.96" fill="none" xmlns="http://www.w3.org/2000/svg">
  <defs>
    <path id="path_1" d="M18.5556 22.9599C18.2704 22.9599 17.9867 22.8723 17.7424 22.698C17.7424 22.698 12.0001 18.5799 12.0001 18.5799C12.0001 18.5799 6.25786 22.698 6.25786 22.698C5.76984 23.0491 5.11145 23.0468 4.62587 22.6923C4.13989 22.34 3.93471 21.7156 4.11694 21.1437C4.11694 21.1437 6.25856 14.2317 6.25856 14.2317C6.25856 14.2317 0.567802 10.2217 0.567802 10.2217C0.084144 9.86471 -0.117109 9.2385 0.0680431 8.66661C0.254651 8.09613 0.78499 7.70875 1.3852 7.70451C1.3852 7.70451 8.43336 7.69392 8.43336 7.69392C8.43336 7.69392 10.6773 0.953523 10.6773 0.953523C10.8673 0.384071 11.4002 0 12.0005 0C12.6008 -3.36587e-07 13.1337 0.384071 13.3237 0.953523C13.3237 0.953523 15.5295 7.69392 15.5295 7.69392C15.5295 7.69392 22.6137 7.70451 22.6137 7.70451C23.2147 7.7079 23.7459 8.09608 23.9316 8.66767C24.1174 9.23926 23.916 9.86556 23.4318 10.2217C23.4318 10.2217 17.741 14.2317 17.741 14.2317C17.741 14.2317 19.8826 21.1437 19.8826 21.1437C20.0653 21.7155 19.8603 22.3399 19.3744 22.6923C19.137 22.8665 18.8501 22.9602 18.5556 22.9599C18.5556 22.9599 18.5556 22.9599 18.5556 22.9599Z" />
    <clipPath id="clip_path_2">
      <use p4:href="#path_1" xmlns:p4="http://www.w3.org/1999/xlink" />
    </clipPath>
  </defs>
  <g id="star-half" transform="translate(0 0)">
    <path id="Mask" d="M18.5556 22.9599C18.2704 22.9599 17.9867 22.8723 17.7424 22.698C17.7424 22.698 12.0001 18.5799 12.0001 18.5799C12.0001 18.5799 6.25786 22.698 6.25786 22.698C5.76984 23.0491 5.11145 23.0468 4.62587 22.6923C4.13989 22.34 3.93471 21.7156 4.11694 21.1437C4.11694 21.1437 6.25856 14.2317 6.25856 14.2317C6.25856 14.2317 0.567802 10.2217 0.567802 10.2217C0.084144 9.86471 -0.117109 9.2385 0.0680431 8.66661C0.254651 8.09613 0.78499 7.70875 1.3852 7.70451C1.3852 7.70451 8.43336 7.69392 8.43336 7.69392C8.43336 7.69392 10.6773 0.953523 10.6773 0.953523C10.8673 0.384071 11.4002 0 12.0005 0C12.6008 -3.36587e-07 13.1337 0.384071 13.3237 0.953523C13.3237 0.953523 15.5295 7.69392 15.5295 7.69392C15.5295 7.69392 22.6137 7.70451 22.6137 7.70451C23.2147 7.7079 23.7459 8.09608 23.9316 8.66767C24.1174 9.23926 23.916 9.86556 23.4318 10.2217C23.4318 10.2217 17.741 14.2317 17.741 14.2317C17.741 14.2317 19.8826 21.1437 19.8826 21.1437C20.0653 21.7155 19.8603 22.3399 19.3744 22.6923C19.137 22.8665 18.8501 22.9602 18.5556 22.9599C18.5556 22.9599 18.5556 22.9599 18.5556 22.9599Z" fill="#FFF600" fill-rule="evenodd" />
    <g clip-path="url(#clip_path_2)">
      <rect width="12" height="23" fill="#BDBDBD" fill-rule="evenodd" transform="translate(12 0)" />
    </g>
  </g>
</svg>